<mxfile host="app.diagrams.net" modified="2021-03-02T14:44:31.596Z" agent="5.0 (Windows)" etag="6Eyl8TRM8wHf2uJLBAR5" version="14.2.5" type="github">
  <diagram id="gTJ2B-f99vsyuF_vivrf" name="Page-1">
    <mxGraphModel dx="1185" dy="692" grid="1" gridSize="10" guides="1" tooltips="1" connect="1" arrows="1" fold="1" page="1" pageScale="1" pageWidth="850" pageHeight="1100" math="0" shadow="0">
      <root>
        <mxCell id="0" />
        <mxCell id="1" parent="0" />
        <mxCell id="_krqjOud9GXak5Im0Ij4-1" value="" style="rounded=1;whiteSpace=wrap;html=1;" parent="1" vertex="1">
          <mxGeometry x="290" y="143" width="525.87" height="259" as="geometry" />
        </mxCell>
        <mxCell id="_krqjOud9GXak5Im0Ij4-286" value="" style="group" parent="1" vertex="1" connectable="0">
          <mxGeometry x="300" y="240" width="70" height="140" as="geometry" />
        </mxCell>
        <mxCell id="_krqjOud9GXak5Im0Ij4-2" value="" style="ellipse;whiteSpace=wrap;html=1;aspect=fixed;fillColor=#CCCCCC;rotation=90;" parent="_krqjOud9GXak5Im0Ij4-286" vertex="1">
          <mxGeometry x="10" y="60" width="20" height="20" as="geometry" />
        </mxCell>
        <mxCell id="_krqjOud9GXak5Im0Ij4-5" value="" style="ellipse;whiteSpace=wrap;html=1;aspect=fixed;fillColor=#CCCCCC;rotation=90;" parent="_krqjOud9GXak5Im0Ij4-286" vertex="1">
          <mxGeometry x="10" y="22" width="20" height="20" as="geometry" />
        </mxCell>
        <mxCell id="_krqjOud9GXak5Im0Ij4-170" value="" style="ellipse;whiteSpace=wrap;html=1;aspect=fixed;fillColor=#CCCCCC;rotation=90;" parent="_krqjOud9GXak5Im0Ij4-286" vertex="1">
          <mxGeometry x="10" y="100" width="20" height="20" as="geometry" />
        </mxCell>
        <mxCell id="_krqjOud9GXak5Im0Ij4-283" value="&lt;b&gt;&lt;font style=&quot;font-size: 8px&quot;&gt;Select&lt;/font&gt;&lt;/b&gt;" style="text;html=1;align=center;verticalAlign=middle;resizable=0;points=[];autosize=1;" parent="_krqjOud9GXak5Im0Ij4-286" vertex="1">
          <mxGeometry x="30" y="60" width="40" height="20" as="geometry" />
        </mxCell>
        <mxCell id="_krqjOud9GXak5Im0Ij4-284" value="&lt;b&gt;&lt;font style=&quot;font-size: 8px&quot;&gt;Up&lt;/font&gt;&lt;/b&gt;" style="text;html=1;align=center;verticalAlign=middle;resizable=0;points=[];autosize=1;" parent="_krqjOud9GXak5Im0Ij4-286" vertex="1">
          <mxGeometry x="5" width="30" height="20" as="geometry" />
        </mxCell>
        <mxCell id="_krqjOud9GXak5Im0Ij4-285" value="&lt;b&gt;&lt;font style=&quot;font-size: 8px&quot;&gt;Down&lt;/font&gt;&lt;/b&gt;" style="text;html=1;align=center;verticalAlign=middle;resizable=0;points=[];autosize=1;" parent="_krqjOud9GXak5Im0Ij4-286" vertex="1">
          <mxGeometry y="120" width="40" height="20" as="geometry" />
        </mxCell>
        <mxCell id="_krqjOud9GXak5Im0Ij4-295" value="" style="group" parent="1" vertex="1" connectable="0">
          <mxGeometry x="310" y="150" width="170" height="70" as="geometry" />
        </mxCell>
        <mxCell id="_krqjOud9GXak5Im0Ij4-289" value="" style="rounded=1;whiteSpace=wrap;html=1;shadow=0;sketch=0;strokeColor=#FFFFFF;strokeWidth=1;fillColor=#000000;" parent="_krqjOud9GXak5Im0Ij4-295" vertex="1">
          <mxGeometry width="170" height="70" as="geometry" />
        </mxCell>
        <mxCell id="_krqjOud9GXak5Im0Ij4-290" value="" style="rounded=1;whiteSpace=wrap;html=1;shadow=0;sketch=0;strokeWidth=1;fillColor=#99CCFF;strokeColor=#1A1A1A;" parent="_krqjOud9GXak5Im0Ij4-295" vertex="1">
          <mxGeometry x="10" y="10" width="150" height="50" as="geometry" />
        </mxCell>
        <mxCell id="_krqjOud9GXak5Im0Ij4-291" value="&lt;b&gt;0 km/h&lt;/b&gt;" style="text;html=1;align=center;verticalAlign=middle;resizable=0;points=[];autosize=1;" parent="_krqjOud9GXak5Im0Ij4-295" vertex="1">
          <mxGeometry x="10" y="16" width="50" height="20" as="geometry" />
        </mxCell>
        <mxCell id="_krqjOud9GXak5Im0Ij4-292" value="&lt;b&gt;Battery ok&lt;/b&gt;" style="text;html=1;strokeColor=none;fillColor=none;align=center;verticalAlign=middle;whiteSpace=wrap;rounded=0;shadow=0;sketch=0;" parent="_krqjOud9GXak5Im0Ij4-295" vertex="1">
          <mxGeometry x="87.91000000000003" y="40" width="72.09" height="20" as="geometry" />
        </mxCell>
        <mxCell id="_krqjOud9GXak5Im0Ij4-293" value="&lt;b&gt;Power: -20 W&lt;/b&gt;" style="text;html=1;strokeColor=none;fillColor=none;align=center;verticalAlign=middle;whiteSpace=wrap;rounded=0;shadow=0;sketch=0;" parent="_krqjOud9GXak5Im0Ij4-295" vertex="1">
          <mxGeometry x="79.94999999999999" y="16" width="80" height="20" as="geometry" />
        </mxCell>
        <mxCell id="_krqjOud9GXak5Im0Ij4-424" value="" style="group" parent="1" vertex="1" connectable="0">
          <mxGeometry x="380" y="240" width="240" height="154.67602491824368" as="geometry" />
        </mxCell>
        <mxCell id="_krqjOud9GXak5Im0Ij4-272" value="" style="group" parent="_krqjOud9GXak5Im0Ij4-424" vertex="1" connectable="0">
          <mxGeometry x="-9.549999999999997" y="68.00369566621987" width="75.90971433289837" height="78.59630433378015" as="geometry" />
        </mxCell>
        <mxCell id="_krqjOud9GXak5Im0Ij4-136" value="" style="group" parent="_krqjOud9GXak5Im0Ij4-272" vertex="1" connectable="0">
          <mxGeometry width="75.90971433289843" height="78.59630433378015" as="geometry" />
        </mxCell>
        <mxCell id="_krqjOud9GXak5Im0Ij4-132" value="" style="group;rotation=-130;" parent="_krqjOud9GXak5Im0Ij4-136" vertex="1" connectable="0">
          <mxGeometry x="14.86751920791724" y="10.603823541697409" width="51" height="67.99248079208274" as="geometry" />
        </mxCell>
        <mxCell id="_krqjOud9GXak5Im0Ij4-135" value="" style="group" parent="_krqjOud9GXak5Im0Ij4-132" vertex="1" connectable="0">
          <mxGeometry x="-5" y="-6" width="54" height="54" as="geometry" />
        </mxCell>
        <mxCell id="_krqjOud9GXak5Im0Ij4-116" value="" style="triangle;whiteSpace=wrap;html=1;shadow=0;sketch=0;strokeWidth=1;fillColor=#CCCCCC;rotation=-220;" parent="_krqjOud9GXak5Im0Ij4-135" vertex="1">
          <mxGeometry x="9" y="34" width="9" height="10" as="geometry" />
        </mxCell>
        <mxCell id="_krqjOud9GXak5Im0Ij4-115" value="" style="ellipse;whiteSpace=wrap;html=1;aspect=fixed;shadow=0;fillColor=#CCCCCC;rotation=-260;" parent="_krqjOud9GXak5Im0Ij4-135" vertex="1">
          <mxGeometry x="12" y="12" width="30" height="30" as="geometry" />
        </mxCell>
        <mxCell id="_krqjOud9GXak5Im0Ij4-108" value="" style="shape=image;html=1;verticalAlign=top;verticalLabelPosition=bottom;labelBackgroundColor=#ffffff;imageAspect=0;aspect=fixed;image=https://cdn1.iconfinder.com/data/icons/jumpicon-basic-ui-line-1/32/-_Gear-Settings-Setting-Wheel--128.png;shadow=1;sketch=0;strokeColor=#666666;strokeWidth=1;fillColor=#CCCCCC;rotation=0;" parent="_krqjOud9GXak5Im0Ij4-135" vertex="1">
          <mxGeometry x="12.003678644003656" y="12" width="30" height="30" as="geometry" />
        </mxCell>
        <mxCell id="_krqjOud9GXak5Im0Ij4-133" value="" style="ellipse;whiteSpace=wrap;html=1;aspect=fixed;fillColor=none;" parent="_krqjOud9GXak5Im0Ij4-135" vertex="1">
          <mxGeometry width="54" height="54" as="geometry" />
        </mxCell>
        <mxCell id="_krqjOud9GXak5Im0Ij4-134" value="" style="rounded=0;whiteSpace=wrap;html=1;shadow=0;sketch=0;strokeColor=#FFFFFF;strokeWidth=1;" parent="_krqjOud9GXak5Im0Ij4-136" vertex="1">
          <mxGeometry x="17" y="50.106304333780145" width="40" height="10" as="geometry" />
        </mxCell>
        <mxCell id="_krqjOud9GXak5Im0Ij4-127" value="&lt;b&gt;&lt;font style=&quot;font-size: 8px&quot;&gt;Max&lt;/font&gt;&lt;/b&gt;" style="text;html=1;align=center;verticalAlign=middle;resizable=0;points=[];autosize=1;" parent="_krqjOud9GXak5Im0Ij4-136" vertex="1">
          <mxGeometry x="41" y="43.106304333780145" width="30" height="20" as="geometry" />
        </mxCell>
        <mxCell id="_krqjOud9GXak5Im0Ij4-126" value="&lt;b&gt;&lt;font style=&quot;font-size: 8px&quot;&gt;Min&lt;/font&gt;&lt;/b&gt;" style="text;html=1;align=center;verticalAlign=middle;resizable=0;points=[];autosize=1;" parent="_krqjOud9GXak5Im0Ij4-136" vertex="1">
          <mxGeometry y="43.106304333780145" width="30" height="20" as="geometry" />
        </mxCell>
        <mxCell id="_krqjOud9GXak5Im0Ij4-182" value="&lt;b&gt;&lt;font style=&quot;font-size: 8px&quot;&gt;Cooling&lt;/font&gt;&lt;/b&gt;" style="text;html=1;align=center;verticalAlign=middle;resizable=0;points=[];autosize=1;" parent="_krqjOud9GXak5Im0Ij4-272" vertex="1">
          <mxGeometry x="11.870000000000005" y="56.99630433378013" width="50" height="20" as="geometry" />
        </mxCell>
        <mxCell id="_krqjOud9GXak5Im0Ij4-276" value="" style="group" parent="_krqjOud9GXak5Im0Ij4-424" vertex="1" connectable="0">
          <mxGeometry x="10" width="195.95000000000005" height="68" as="geometry" />
        </mxCell>
        <mxCell id="_krqjOud9GXak5Im0Ij4-249" value="" style="group" parent="_krqjOud9GXak5Im0Ij4-276" vertex="1" connectable="0">
          <mxGeometry y="4" width="30" height="62" as="geometry" />
        </mxCell>
        <mxCell id="_krqjOud9GXak5Im0Ij4-186" value="&lt;b&gt;&lt;font style=&quot;font-size: 8px&quot;&gt;DRL&lt;/font&gt;&lt;/b&gt;" style="text;html=1;align=center;verticalAlign=middle;resizable=0;points=[];autosize=1;" parent="_krqjOud9GXak5Im0Ij4-249" vertex="1">
          <mxGeometry width="30" height="20" as="geometry" />
        </mxCell>
        <mxCell id="_krqjOud9GXak5Im0Ij4-66" value="" style="group" parent="_krqjOud9GXak5Im0Ij4-249" vertex="1" connectable="0">
          <mxGeometry y="16" width="30" height="46" as="geometry" />
        </mxCell>
        <mxCell id="_krqjOud9GXak5Im0Ij4-67" value="" style="ellipse;whiteSpace=wrap;html=1;aspect=fixed;shadow=1;strokeColor=#666666;fillColor=#CCCCCC;" parent="_krqjOud9GXak5Im0Ij4-66" vertex="1">
          <mxGeometry width="30" height="30" as="geometry" />
        </mxCell>
        <mxCell id="_krqjOud9GXak5Im0Ij4-68" value="" style="ellipse;whiteSpace=wrap;html=1;aspect=fixed;fillColor=#666666;" parent="_krqjOud9GXak5Im0Ij4-66" vertex="1">
          <mxGeometry x="5" y="5" width="20" height="20" as="geometry" />
        </mxCell>
        <mxCell id="_krqjOud9GXak5Im0Ij4-69" value="" style="rounded=1;whiteSpace=wrap;html=1;shadow=0;fillColor=#CCCCCC;strokeColor=#666666;" parent="_krqjOud9GXak5Im0Ij4-66" vertex="1">
          <mxGeometry x="9" y="13.120000000000005" width="12" height="26.88" as="geometry" />
        </mxCell>
        <mxCell id="_krqjOud9GXak5Im0Ij4-70" value="" style="ellipse;whiteSpace=wrap;html=1;aspect=fixed;shadow=0;fillColor=#CCCCCC;sketch=0;strokeColor=#666666;" parent="_krqjOud9GXak5Im0Ij4-66" vertex="1">
          <mxGeometry x="9" y="34" width="12" height="12" as="geometry" />
        </mxCell>
        <mxCell id="_krqjOud9GXak5Im0Ij4-71" value="" style="ellipse;whiteSpace=wrap;html=1;aspect=fixed;fillColor=#CCCCCC;strokeColor=#CCCCCC;" parent="_krqjOud9GXak5Im0Ij4-66" vertex="1">
          <mxGeometry x="10" y="11" width="10" height="10" as="geometry" />
        </mxCell>
        <mxCell id="_krqjOud9GXak5Im0Ij4-250" value="" style="group" parent="_krqjOud9GXak5Im0Ij4-276" vertex="1" connectable="0">
          <mxGeometry x="125.95000000000005" y="4" width="70" height="62" as="geometry" />
        </mxCell>
        <mxCell id="_krqjOud9GXak5Im0Ij4-192" value="&lt;b&gt;&lt;font style=&quot;font-size: 8px&quot;&gt;Hazard lights&lt;/font&gt;&lt;/b&gt;" style="text;html=1;align=center;verticalAlign=middle;resizable=0;points=[];autosize=1;" parent="_krqjOud9GXak5Im0Ij4-250" vertex="1">
          <mxGeometry width="70" height="20" as="geometry" />
        </mxCell>
        <mxCell id="_krqjOud9GXak5Im0Ij4-84" value="" style="group" parent="_krqjOud9GXak5Im0Ij4-250" vertex="1" connectable="0">
          <mxGeometry x="20" y="16" width="30" height="46" as="geometry" />
        </mxCell>
        <mxCell id="_krqjOud9GXak5Im0Ij4-85" value="" style="ellipse;whiteSpace=wrap;html=1;aspect=fixed;shadow=1;strokeColor=#666666;fillColor=#CCCCCC;" parent="_krqjOud9GXak5Im0Ij4-84" vertex="1">
          <mxGeometry width="30" height="30" as="geometry" />
        </mxCell>
        <mxCell id="_krqjOud9GXak5Im0Ij4-86" value="" style="ellipse;whiteSpace=wrap;html=1;aspect=fixed;fillColor=#666666;" parent="_krqjOud9GXak5Im0Ij4-84" vertex="1">
          <mxGeometry x="5" y="5" width="20" height="20" as="geometry" />
        </mxCell>
        <mxCell id="_krqjOud9GXak5Im0Ij4-87" value="" style="rounded=1;whiteSpace=wrap;html=1;shadow=0;fillColor=#CCCCCC;strokeColor=#666666;" parent="_krqjOud9GXak5Im0Ij4-84" vertex="1">
          <mxGeometry x="9" y="13.120000000000005" width="12" height="26.88" as="geometry" />
        </mxCell>
        <mxCell id="_krqjOud9GXak5Im0Ij4-88" value="" style="ellipse;whiteSpace=wrap;html=1;aspect=fixed;shadow=0;fillColor=#CCCCCC;sketch=0;strokeColor=#666666;" parent="_krqjOud9GXak5Im0Ij4-84" vertex="1">
          <mxGeometry x="9" y="34" width="12" height="12" as="geometry" />
        </mxCell>
        <mxCell id="_krqjOud9GXak5Im0Ij4-89" value="" style="ellipse;whiteSpace=wrap;html=1;aspect=fixed;fillColor=#CCCCCC;strokeColor=#CCCCCC;" parent="_krqjOud9GXak5Im0Ij4-84" vertex="1">
          <mxGeometry x="10" y="11" width="10" height="10" as="geometry" />
        </mxCell>
        <mxCell id="_krqjOud9GXak5Im0Ij4-266" value="" style="group" parent="_krqjOud9GXak5Im0Ij4-276" vertex="1" connectable="0">
          <mxGeometry x="91.91000000000003" y="2" width="40" height="66" as="geometry" />
        </mxCell>
        <mxCell id="_krqjOud9GXak5Im0Ij4-196" value="&lt;b&gt;&lt;font style=&quot;font-size: 8px&quot;&gt;Right&lt;/font&gt;&lt;/b&gt;" style="text;html=1;align=center;verticalAlign=middle;resizable=0;points=[];autosize=1;" parent="_krqjOud9GXak5Im0Ij4-266" vertex="1">
          <mxGeometry width="40" height="20" as="geometry" />
        </mxCell>
        <mxCell id="_krqjOud9GXak5Im0Ij4-260" value="" style="group" parent="_krqjOud9GXak5Im0Ij4-266" vertex="1" connectable="0">
          <mxGeometry x="5" y="20" width="30" height="46" as="geometry" />
        </mxCell>
        <mxCell id="_krqjOud9GXak5Im0Ij4-261" value="" style="ellipse;whiteSpace=wrap;html=1;aspect=fixed;shadow=1;strokeColor=#666666;fillColor=#CCCCCC;" parent="_krqjOud9GXak5Im0Ij4-260" vertex="1">
          <mxGeometry width="30" height="30" as="geometry" />
        </mxCell>
        <mxCell id="_krqjOud9GXak5Im0Ij4-262" value="" style="ellipse;whiteSpace=wrap;html=1;aspect=fixed;fillColor=#666666;" parent="_krqjOud9GXak5Im0Ij4-260" vertex="1">
          <mxGeometry x="5" y="5" width="20" height="20" as="geometry" />
        </mxCell>
        <mxCell id="_krqjOud9GXak5Im0Ij4-263" value="" style="rounded=1;whiteSpace=wrap;html=1;shadow=0;fillColor=#CCCCCC;strokeColor=#666666;" parent="_krqjOud9GXak5Im0Ij4-260" vertex="1">
          <mxGeometry x="9" y="13.120000000000005" width="12" height="26.88" as="geometry" />
        </mxCell>
        <mxCell id="_krqjOud9GXak5Im0Ij4-264" value="" style="ellipse;whiteSpace=wrap;html=1;aspect=fixed;shadow=0;fillColor=#CCCCCC;sketch=0;strokeColor=#666666;" parent="_krqjOud9GXak5Im0Ij4-260" vertex="1">
          <mxGeometry x="9" y="34" width="12" height="12" as="geometry" />
        </mxCell>
        <mxCell id="_krqjOud9GXak5Im0Ij4-265" value="" style="ellipse;whiteSpace=wrap;html=1;aspect=fixed;fillColor=#CCCCCC;strokeColor=#CCCCCC;" parent="_krqjOud9GXak5Im0Ij4-260" vertex="1">
          <mxGeometry x="10" y="11" width="10" height="10" as="geometry" />
        </mxCell>
        <mxCell id="_krqjOud9GXak5Im0Ij4-267" value="" style="group" parent="_krqjOud9GXak5Im0Ij4-276" vertex="1" connectable="0">
          <mxGeometry x="48" width="30" height="66" as="geometry" />
        </mxCell>
        <mxCell id="_krqjOud9GXak5Im0Ij4-195" value="&lt;b&gt;&lt;font style=&quot;font-size: 8px&quot;&gt;Left&lt;/font&gt;&lt;/b&gt;" style="text;html=1;align=center;verticalAlign=middle;resizable=0;points=[];autosize=1;" parent="_krqjOud9GXak5Im0Ij4-267" vertex="1">
          <mxGeometry width="30" height="20" as="geometry" />
        </mxCell>
        <mxCell id="_krqjOud9GXak5Im0Ij4-254" value="" style="group" parent="_krqjOud9GXak5Im0Ij4-267" vertex="1" connectable="0">
          <mxGeometry y="20" width="30" height="46" as="geometry" />
        </mxCell>
        <mxCell id="_krqjOud9GXak5Im0Ij4-255" value="" style="ellipse;whiteSpace=wrap;html=1;aspect=fixed;shadow=1;strokeColor=#666666;fillColor=#CCCCCC;" parent="_krqjOud9GXak5Im0Ij4-254" vertex="1">
          <mxGeometry width="30" height="30" as="geometry" />
        </mxCell>
        <mxCell id="_krqjOud9GXak5Im0Ij4-256" value="" style="ellipse;whiteSpace=wrap;html=1;aspect=fixed;fillColor=#666666;" parent="_krqjOud9GXak5Im0Ij4-254" vertex="1">
          <mxGeometry x="5" y="5" width="20" height="20" as="geometry" />
        </mxCell>
        <mxCell id="_krqjOud9GXak5Im0Ij4-257" value="" style="rounded=1;whiteSpace=wrap;html=1;shadow=0;fillColor=#CCCCCC;strokeColor=#666666;" parent="_krqjOud9GXak5Im0Ij4-254" vertex="1">
          <mxGeometry x="9" y="13.120000000000005" width="12" height="26.88" as="geometry" />
        </mxCell>
        <mxCell id="_krqjOud9GXak5Im0Ij4-258" value="" style="ellipse;whiteSpace=wrap;html=1;aspect=fixed;shadow=0;fillColor=#CCCCCC;sketch=0;strokeColor=#666666;" parent="_krqjOud9GXak5Im0Ij4-254" vertex="1">
          <mxGeometry x="9" y="34" width="12" height="12" as="geometry" />
        </mxCell>
        <mxCell id="_krqjOud9GXak5Im0Ij4-259" value="" style="ellipse;whiteSpace=wrap;html=1;aspect=fixed;fillColor=#CCCCCC;strokeColor=#CCCCCC;" parent="_krqjOud9GXak5Im0Ij4-254" vertex="1">
          <mxGeometry x="10" y="11" width="10" height="10" as="geometry" />
        </mxCell>
        <mxCell id="_krqjOud9GXak5Im0Ij4-280" value="" style="group" parent="_krqjOud9GXak5Im0Ij4-424" vertex="1" connectable="0">
          <mxGeometry x="220" width="30" height="44" as="geometry" />
        </mxCell>
        <mxCell id="_krqjOud9GXak5Im0Ij4-169" value="" style="ellipse;whiteSpace=wrap;html=1;aspect=fixed;fillColor=#CCCCCC;rotation=90;" parent="_krqjOud9GXak5Im0Ij4-280" vertex="1">
          <mxGeometry x="5" y="24" width="20" height="20" as="geometry" />
        </mxCell>
        <mxCell id="_krqjOud9GXak5Im0Ij4-279" value="&lt;b&gt;&lt;font style=&quot;font-size: 8px&quot;&gt;Horn&lt;/font&gt;&lt;/b&gt;" style="text;html=1;align=center;verticalAlign=middle;resizable=0;points=[];autosize=1;" parent="_krqjOud9GXak5Im0Ij4-280" vertex="1">
          <mxGeometry width="30" height="20" as="geometry" />
        </mxCell>
        <mxCell id="_krqjOud9GXak5Im0Ij4-275" value="" style="group" parent="_krqjOud9GXak5Im0Ij4-424" vertex="1" connectable="0">
          <mxGeometry x="131.35663967308125" y="70.93149428967348" width="83.64175906967199" height="81.7445306285702" as="geometry" />
        </mxCell>
        <mxCell id="_krqjOud9GXak5Im0Ij4-149" value="" style="group;rotation=-130;" parent="_krqjOud9GXak5Im0Ij4-275" vertex="1" connectable="0">
          <mxGeometry x="16.320879534835967" y="7.676024918243797" width="51" height="66.39248079208272" as="geometry" />
        </mxCell>
        <mxCell id="_krqjOud9GXak5Im0Ij4-150" value="" style="group" parent="_krqjOud9GXak5Im0Ij4-149" vertex="1" connectable="0">
          <mxGeometry x="-5" y="-6" width="54" height="54" as="geometry" />
        </mxCell>
        <mxCell id="_krqjOud9GXak5Im0Ij4-151" value="" style="triangle;whiteSpace=wrap;html=1;shadow=0;sketch=0;strokeWidth=1;fillColor=#CCCCCC;rotation=-220;" parent="_krqjOud9GXak5Im0Ij4-150" vertex="1">
          <mxGeometry x="9" y="34" width="9" height="10" as="geometry" />
        </mxCell>
        <mxCell id="_krqjOud9GXak5Im0Ij4-152" value="" style="ellipse;whiteSpace=wrap;html=1;aspect=fixed;shadow=0;fillColor=#CCCCCC;rotation=-260;" parent="_krqjOud9GXak5Im0Ij4-150" vertex="1">
          <mxGeometry x="12" y="12" width="30" height="30" as="geometry" />
        </mxCell>
        <mxCell id="_krqjOud9GXak5Im0Ij4-153" value="" style="shape=image;html=1;verticalAlign=top;verticalLabelPosition=bottom;labelBackgroundColor=#ffffff;imageAspect=0;aspect=fixed;image=https://cdn1.iconfinder.com/data/icons/jumpicon-basic-ui-line-1/32/-_Gear-Settings-Setting-Wheel--128.png;shadow=1;sketch=0;strokeColor=#666666;strokeWidth=1;fillColor=#CCCCCC;rotation=0;" parent="_krqjOud9GXak5Im0Ij4-150" vertex="1">
          <mxGeometry x="12.003678644003656" y="12" width="30" height="30" as="geometry" />
        </mxCell>
        <mxCell id="_krqjOud9GXak5Im0Ij4-154" value="" style="ellipse;whiteSpace=wrap;html=1;aspect=fixed;fillColor=none;" parent="_krqjOud9GXak5Im0Ij4-150" vertex="1">
          <mxGeometry width="54" height="54" as="geometry" />
        </mxCell>
        <mxCell id="_krqjOud9GXak5Im0Ij4-155" value="" style="rounded=0;whiteSpace=wrap;html=1;shadow=0;sketch=0;strokeColor=#FFFFFF;strokeWidth=1;" parent="_krqjOud9GXak5Im0Ij4-275" vertex="1">
          <mxGeometry x="18.453360326918755" y="47.17850571032653" width="40" height="10" as="geometry" />
        </mxCell>
        <mxCell id="_krqjOud9GXak5Im0Ij4-156" value="&lt;b&gt;&lt;font style=&quot;font-size: 8px&quot;&gt;Max&lt;/font&gt;&lt;/b&gt;" style="text;html=1;align=center;verticalAlign=middle;resizable=0;points=[];autosize=1;" parent="_krqjOud9GXak5Im0Ij4-275" vertex="1">
          <mxGeometry x="42.453360326918755" y="40.17850571032653" width="30" height="20" as="geometry" />
        </mxCell>
        <mxCell id="_krqjOud9GXak5Im0Ij4-157" value="&lt;b&gt;&lt;font style=&quot;font-size: 8px&quot;&gt;Min&lt;/font&gt;&lt;/b&gt;" style="text;html=1;align=center;verticalAlign=middle;resizable=0;points=[];autosize=1;" parent="_krqjOud9GXak5Im0Ij4-275" vertex="1">
          <mxGeometry x="1.4533603269187552" y="40.17850571032653" width="30" height="20" as="geometry" />
        </mxCell>
        <mxCell id="_krqjOud9GXak5Im0Ij4-181" value="&lt;b&gt;&lt;font style=&quot;font-size: 8px&quot;&gt;Brake&lt;/font&gt;&lt;/b&gt;" style="text;html=1;align=center;verticalAlign=middle;resizable=0;points=[];autosize=1;" parent="_krqjOud9GXak5Im0Ij4-275" vertex="1">
          <mxGeometry x="16.32336032691876" y="54.06850571032652" width="40" height="20" as="geometry" />
        </mxCell>
        <mxCell id="_krqjOud9GXak5Im0Ij4-273" value="" style="group" parent="_krqjOud9GXak5Im0Ij4-424" vertex="1" connectable="0">
          <mxGeometry x="60.36" y="68" width="75.90971433289843" height="77" as="geometry" />
        </mxCell>
        <mxCell id="_krqjOud9GXak5Im0Ij4-158" value="" style="group" parent="_krqjOud9GXak5Im0Ij4-273" vertex="1" connectable="0">
          <mxGeometry width="75.90971433289843" height="71.20764708339482" as="geometry" />
        </mxCell>
        <mxCell id="_krqjOud9GXak5Im0Ij4-159" value="" style="group;rotation=-130;" parent="_krqjOud9GXak5Im0Ij4-158" vertex="1" connectable="0">
          <mxGeometry x="14.86751920791724" y="10.603823541697409" width="51" height="50" as="geometry" />
        </mxCell>
        <mxCell id="_krqjOud9GXak5Im0Ij4-160" value="" style="group" parent="_krqjOud9GXak5Im0Ij4-159" vertex="1" connectable="0">
          <mxGeometry x="-5" y="-6" width="54" height="54" as="geometry" />
        </mxCell>
        <mxCell id="_krqjOud9GXak5Im0Ij4-161" value="" style="triangle;whiteSpace=wrap;html=1;shadow=0;sketch=0;strokeWidth=1;fillColor=#CCCCCC;rotation=-220;" parent="_krqjOud9GXak5Im0Ij4-160" vertex="1">
          <mxGeometry x="9" y="34" width="9" height="10" as="geometry" />
        </mxCell>
        <mxCell id="_krqjOud9GXak5Im0Ij4-162" value="" style="ellipse;whiteSpace=wrap;html=1;aspect=fixed;shadow=0;fillColor=#CCCCCC;rotation=-260;" parent="_krqjOud9GXak5Im0Ij4-160" vertex="1">
          <mxGeometry x="12" y="12" width="30" height="30" as="geometry" />
        </mxCell>
        <mxCell id="_krqjOud9GXak5Im0Ij4-163" value="" style="shape=image;html=1;verticalAlign=top;verticalLabelPosition=bottom;labelBackgroundColor=#ffffff;imageAspect=0;aspect=fixed;image=https://cdn1.iconfinder.com/data/icons/jumpicon-basic-ui-line-1/32/-_Gear-Settings-Setting-Wheel--128.png;shadow=1;sketch=0;strokeColor=#666666;strokeWidth=1;fillColor=#CCCCCC;rotation=0;" parent="_krqjOud9GXak5Im0Ij4-160" vertex="1">
          <mxGeometry x="12.003678644003656" y="12" width="30" height="30" as="geometry" />
        </mxCell>
        <mxCell id="_krqjOud9GXak5Im0Ij4-164" value="" style="ellipse;whiteSpace=wrap;html=1;aspect=fixed;fillColor=none;" parent="_krqjOud9GXak5Im0Ij4-160" vertex="1">
          <mxGeometry width="54" height="54" as="geometry" />
        </mxCell>
        <mxCell id="_krqjOud9GXak5Im0Ij4-165" value="" style="rounded=0;whiteSpace=wrap;html=1;shadow=0;sketch=0;strokeColor=#FFFFFF;strokeWidth=1;" parent="_krqjOud9GXak5Im0Ij4-158" vertex="1">
          <mxGeometry x="17" y="50.106304333780145" width="40" height="10" as="geometry" />
        </mxCell>
        <mxCell id="_krqjOud9GXak5Im0Ij4-166" value="&lt;b&gt;&lt;font style=&quot;font-size: 8px&quot;&gt;Max&lt;/font&gt;&lt;/b&gt;" style="text;html=1;align=center;verticalAlign=middle;resizable=0;points=[];autosize=1;" parent="_krqjOud9GXak5Im0Ij4-158" vertex="1">
          <mxGeometry x="41" y="43.106304333780145" width="30" height="20" as="geometry" />
        </mxCell>
        <mxCell id="_krqjOud9GXak5Im0Ij4-167" value="&lt;b&gt;&lt;font style=&quot;font-size: 8px&quot;&gt;Min&lt;/font&gt;&lt;/b&gt;" style="text;html=1;align=center;verticalAlign=middle;resizable=0;points=[];autosize=1;" parent="_krqjOud9GXak5Im0Ij4-158" vertex="1">
          <mxGeometry y="43.106304333780145" width="30" height="20" as="geometry" />
        </mxCell>
        <mxCell id="_krqjOud9GXak5Im0Ij4-180" value="&lt;b&gt;&lt;font style=&quot;font-size: 8px&quot;&gt;Acc&lt;/font&gt;&lt;/b&gt;" style="text;html=1;align=center;verticalAlign=middle;resizable=0;points=[];autosize=1;" parent="_krqjOud9GXak5Im0Ij4-273" vertex="1">
          <mxGeometry x="20.94999999999999" y="57" width="30" height="20" as="geometry" />
        </mxCell>
        <mxCell id="rdXREMHJdzj2OCHUx9Kp-4" value="" style="group" parent="1" vertex="1" connectable="0">
          <mxGeometry x="580" y="320" width="70" height="44" as="geometry" />
        </mxCell>
        <mxCell id="rdXREMHJdzj2OCHUx9Kp-2" value="" style="ellipse;whiteSpace=wrap;html=1;aspect=fixed;fillColor=#CCCCCC;rotation=90;" parent="rdXREMHJdzj2OCHUx9Kp-4" vertex="1">
          <mxGeometry x="25" y="24" width="20" height="20" as="geometry" />
        </mxCell>
        <mxCell id="rdXREMHJdzj2OCHUx9Kp-3" value="&lt;b&gt;&lt;font style=&quot;font-size: 8px&quot;&gt;Cruise control&lt;/font&gt;&lt;/b&gt;" style="text;html=1;align=center;verticalAlign=middle;resizable=0;points=[];autosize=1;" parent="rdXREMHJdzj2OCHUx9Kp-4" vertex="1">
          <mxGeometry width="70" height="20" as="geometry" />
        </mxCell>
        <mxCell id="_krqjOud9GXak5Im0Ij4-271" value="" style="group" parent="1" vertex="1" connectable="0">
          <mxGeometry x="720" y="150.00369566621987" width="75.90971433289837" height="76.99630433378013" as="geometry" />
        </mxCell>
        <mxCell id="_krqjOud9GXak5Im0Ij4-138" value="" style="group" parent="_krqjOud9GXak5Im0Ij4-271" vertex="1" connectable="0">
          <mxGeometry width="75.90971433289843" height="71.20764708339482" as="geometry" />
        </mxCell>
        <mxCell id="_krqjOud9GXak5Im0Ij4-139" value="" style="group;rotation=-130;" parent="_krqjOud9GXak5Im0Ij4-138" vertex="1" connectable="0">
          <mxGeometry x="14.86751920791724" y="10.603823541697409" width="51" height="50" as="geometry" />
        </mxCell>
        <mxCell id="_krqjOud9GXak5Im0Ij4-140" value="" style="group" parent="_krqjOud9GXak5Im0Ij4-139" vertex="1" connectable="0">
          <mxGeometry x="-5" y="-6" width="54" height="54" as="geometry" />
        </mxCell>
        <mxCell id="_krqjOud9GXak5Im0Ij4-141" value="" style="triangle;whiteSpace=wrap;html=1;shadow=0;sketch=0;strokeWidth=1;fillColor=#CCCCCC;rotation=-220;" parent="_krqjOud9GXak5Im0Ij4-140" vertex="1">
          <mxGeometry x="9" y="34" width="9" height="10" as="geometry" />
        </mxCell>
        <mxCell id="_krqjOud9GXak5Im0Ij4-142" value="" style="ellipse;whiteSpace=wrap;html=1;aspect=fixed;shadow=0;fillColor=#CCCCCC;rotation=-260;" parent="_krqjOud9GXak5Im0Ij4-140" vertex="1">
          <mxGeometry x="12" y="12" width="30" height="30" as="geometry" />
        </mxCell>
        <mxCell id="_krqjOud9GXak5Im0Ij4-143" value="" style="shape=image;html=1;verticalAlign=top;verticalLabelPosition=bottom;labelBackgroundColor=#ffffff;imageAspect=0;aspect=fixed;image=https://cdn1.iconfinder.com/data/icons/jumpicon-basic-ui-line-1/32/-_Gear-Settings-Setting-Wheel--128.png;shadow=1;sketch=0;strokeColor=#666666;strokeWidth=1;fillColor=#CCCCCC;rotation=0;" parent="_krqjOud9GXak5Im0Ij4-140" vertex="1">
          <mxGeometry x="12.003678644003656" y="12" width="30" height="30" as="geometry" />
        </mxCell>
        <mxCell id="_krqjOud9GXak5Im0Ij4-144" value="" style="ellipse;whiteSpace=wrap;html=1;aspect=fixed;fillColor=none;" parent="_krqjOud9GXak5Im0Ij4-140" vertex="1">
          <mxGeometry width="54" height="54" as="geometry" />
        </mxCell>
        <mxCell id="_krqjOud9GXak5Im0Ij4-145" value="" style="rounded=0;whiteSpace=wrap;html=1;shadow=0;sketch=0;strokeColor=#FFFFFF;strokeWidth=1;" parent="_krqjOud9GXak5Im0Ij4-138" vertex="1">
          <mxGeometry x="17" y="50.106304333780145" width="40" height="10" as="geometry" />
        </mxCell>
        <mxCell id="_krqjOud9GXak5Im0Ij4-146" value="&lt;b&gt;&lt;font style=&quot;font-size: 8px&quot;&gt;Max&lt;/font&gt;&lt;/b&gt;" style="text;html=1;align=center;verticalAlign=middle;resizable=0;points=[];autosize=1;" parent="_krqjOud9GXak5Im0Ij4-138" vertex="1">
          <mxGeometry x="41" y="43.106304333780145" width="30" height="20" as="geometry" />
        </mxCell>
        <mxCell id="_krqjOud9GXak5Im0Ij4-147" value="&lt;b&gt;&lt;font style=&quot;font-size: 8px&quot;&gt;Min&lt;/font&gt;&lt;/b&gt;" style="text;html=1;align=center;verticalAlign=middle;resizable=0;points=[];autosize=1;" parent="_krqjOud9GXak5Im0Ij4-138" vertex="1">
          <mxGeometry y="43.106304333780145" width="30" height="20" as="geometry" />
        </mxCell>
        <mxCell id="_krqjOud9GXak5Im0Ij4-184" value="&lt;b&gt;&lt;font style=&quot;font-size: 8px&quot;&gt;Battery&lt;/font&gt;&lt;/b&gt;" style="text;html=1;align=center;verticalAlign=middle;resizable=0;points=[];autosize=1;" parent="_krqjOud9GXak5Im0Ij4-271" vertex="1">
          <mxGeometry x="17.950000000000045" y="56.99630433378013" width="40" height="20" as="geometry" />
        </mxCell>
        <mxCell id="9WZbX-PhAJqR_XlkO-rp-3" value="" style="group" vertex="1" connectable="0" parent="1">
          <mxGeometry x="660" y="240" width="143.81999999999994" height="162" as="geometry" />
        </mxCell>
        <mxCell id="_krqjOud9GXak5Im0Ij4-278" value="" style="group" parent="9WZbX-PhAJqR_XlkO-rp-3" vertex="1" connectable="0">
          <mxGeometry y="76" width="93" height="86" as="geometry" />
        </mxCell>
        <mxCell id="_krqjOud9GXak5Im0Ij4-248" value="" style="group" parent="_krqjOud9GXak5Im0Ij4-278" vertex="1" connectable="0">
          <mxGeometry width="50" height="86" as="geometry" />
        </mxCell>
        <mxCell id="_krqjOud9GXak5Im0Ij4-187" value="&lt;b&gt;&lt;font style=&quot;font-size: 8px&quot;&gt;Forward&lt;/font&gt;&lt;/b&gt;" style="text;html=1;align=center;verticalAlign=middle;resizable=0;points=[];autosize=1;" parent="_krqjOud9GXak5Im0Ij4-248" vertex="1">
          <mxGeometry width="50" height="20" as="geometry" />
        </mxCell>
        <mxCell id="_krqjOud9GXak5Im0Ij4-188" value="&lt;b&gt;&lt;font style=&quot;font-size: 8px&quot;&gt;Reverse&lt;/font&gt;&lt;/b&gt;" style="text;html=1;align=center;verticalAlign=middle;resizable=0;points=[];autosize=1;" parent="_krqjOud9GXak5Im0Ij4-248" vertex="1">
          <mxGeometry y="66" width="50" height="20" as="geometry" />
        </mxCell>
        <mxCell id="_krqjOud9GXak5Im0Ij4-72" value="" style="group" parent="_krqjOud9GXak5Im0Ij4-248" vertex="1" connectable="0">
          <mxGeometry x="10" y="20" width="30" height="46" as="geometry" />
        </mxCell>
        <mxCell id="_krqjOud9GXak5Im0Ij4-73" value="" style="ellipse;whiteSpace=wrap;html=1;aspect=fixed;shadow=1;strokeColor=#666666;fillColor=#CCCCCC;" parent="_krqjOud9GXak5Im0Ij4-72" vertex="1">
          <mxGeometry width="30" height="30" as="geometry" />
        </mxCell>
        <mxCell id="_krqjOud9GXak5Im0Ij4-74" value="" style="ellipse;whiteSpace=wrap;html=1;aspect=fixed;fillColor=#666666;" parent="_krqjOud9GXak5Im0Ij4-72" vertex="1">
          <mxGeometry x="5" y="5" width="20" height="20" as="geometry" />
        </mxCell>
        <mxCell id="_krqjOud9GXak5Im0Ij4-75" value="" style="rounded=1;whiteSpace=wrap;html=1;shadow=0;fillColor=#CCCCCC;strokeColor=#666666;" parent="_krqjOud9GXak5Im0Ij4-72" vertex="1">
          <mxGeometry x="9" y="13.120000000000005" width="12" height="26.88" as="geometry" />
        </mxCell>
        <mxCell id="_krqjOud9GXak5Im0Ij4-76" value="" style="ellipse;whiteSpace=wrap;html=1;aspect=fixed;shadow=0;fillColor=#CCCCCC;sketch=0;strokeColor=#666666;" parent="_krqjOud9GXak5Im0Ij4-72" vertex="1">
          <mxGeometry x="9" y="34" width="12" height="12" as="geometry" />
        </mxCell>
        <mxCell id="_krqjOud9GXak5Im0Ij4-77" value="" style="ellipse;whiteSpace=wrap;html=1;aspect=fixed;fillColor=#CCCCCC;strokeColor=#CCCCCC;" parent="_krqjOud9GXak5Im0Ij4-72" vertex="1">
          <mxGeometry x="10" y="11" width="10" height="10" as="geometry" />
        </mxCell>
        <mxCell id="_krqjOud9GXak5Im0Ij4-252" value="" style="group" parent="_krqjOud9GXak5Im0Ij4-278" vertex="1" connectable="0">
          <mxGeometry x="53" width="40" height="80" as="geometry" />
        </mxCell>
        <mxCell id="_krqjOud9GXak5Im0Ij4-189" value="&lt;b&gt;&lt;font style=&quot;font-size: 8px&quot;&gt;Eco&lt;/font&gt;&lt;/b&gt;" style="text;html=1;align=center;verticalAlign=middle;resizable=0;points=[];autosize=1;" parent="_krqjOud9GXak5Im0Ij4-252" vertex="1">
          <mxGeometry x="6" y="60" width="30" height="20" as="geometry" />
        </mxCell>
        <mxCell id="_krqjOud9GXak5Im0Ij4-251" value="" style="group" parent="_krqjOud9GXak5Im0Ij4-252" vertex="1" connectable="0">
          <mxGeometry width="40" height="62" as="geometry" />
        </mxCell>
        <mxCell id="_krqjOud9GXak5Im0Ij4-190" value="&lt;b&gt;&lt;font style=&quot;font-size: 8px&quot;&gt;Power&lt;/font&gt;&lt;/b&gt;" style="text;html=1;align=center;verticalAlign=middle;resizable=0;points=[];autosize=1;" parent="_krqjOud9GXak5Im0Ij4-251" vertex="1">
          <mxGeometry width="40" height="20" as="geometry" />
        </mxCell>
        <mxCell id="_krqjOud9GXak5Im0Ij4-241" value="" style="group" parent="_krqjOud9GXak5Im0Ij4-251" vertex="1" connectable="0">
          <mxGeometry x="6" y="16" width="30" height="46" as="geometry" />
        </mxCell>
        <mxCell id="_krqjOud9GXak5Im0Ij4-242" value="" style="ellipse;whiteSpace=wrap;html=1;aspect=fixed;shadow=1;strokeColor=#666666;fillColor=#CCCCCC;" parent="_krqjOud9GXak5Im0Ij4-241" vertex="1">
          <mxGeometry width="30" height="30" as="geometry" />
        </mxCell>
        <mxCell id="_krqjOud9GXak5Im0Ij4-243" value="" style="ellipse;whiteSpace=wrap;html=1;aspect=fixed;fillColor=#666666;" parent="_krqjOud9GXak5Im0Ij4-241" vertex="1">
          <mxGeometry x="5" y="5" width="20" height="20" as="geometry" />
        </mxCell>
        <mxCell id="_krqjOud9GXak5Im0Ij4-244" value="" style="rounded=1;whiteSpace=wrap;html=1;shadow=0;fillColor=#CCCCCC;strokeColor=#666666;" parent="_krqjOud9GXak5Im0Ij4-241" vertex="1">
          <mxGeometry x="9" y="13.120000000000005" width="12" height="26.88" as="geometry" />
        </mxCell>
        <mxCell id="_krqjOud9GXak5Im0Ij4-245" value="" style="ellipse;whiteSpace=wrap;html=1;aspect=fixed;shadow=0;fillColor=#CCCCCC;sketch=0;strokeColor=#666666;" parent="_krqjOud9GXak5Im0Ij4-241" vertex="1">
          <mxGeometry x="9" y="34" width="12" height="12" as="geometry" />
        </mxCell>
        <mxCell id="_krqjOud9GXak5Im0Ij4-246" value="" style="ellipse;whiteSpace=wrap;html=1;aspect=fixed;fillColor=#CCCCCC;strokeColor=#CCCCCC;" parent="_krqjOud9GXak5Im0Ij4-241" vertex="1">
          <mxGeometry x="10" y="11" width="10" height="10" as="geometry" />
        </mxCell>
        <mxCell id="OFRTmVLfSqw4pgtMkZc4-7" value="" style="group" parent="9WZbX-PhAJqR_XlkO-rp-3" vertex="1" connectable="0">
          <mxGeometry x="1.8700000000000045" width="141.94999999999993" height="126" as="geometry" />
        </mxCell>
        <mxCell id="_krqjOud9GXak5Im0Ij4-185" value="&lt;b&gt;&lt;font style=&quot;font-size: 8px&quot;&gt;MC&lt;/font&gt;&lt;/b&gt;" style="text;html=1;align=center;verticalAlign=middle;resizable=0;points=[];autosize=1;" parent="OFRTmVLfSqw4pgtMkZc4-7" vertex="1">
          <mxGeometry x="55.870000000000005" width="30" height="20" as="geometry" />
        </mxCell>
        <mxCell id="_krqjOud9GXak5Im0Ij4-191" value="&lt;b&gt;&lt;font style=&quot;font-size: 8px&quot;&gt;Safe State&lt;/font&gt;&lt;/b&gt;" style="text;html=1;align=center;verticalAlign=middle;resizable=0;points=[];autosize=1;" parent="OFRTmVLfSqw4pgtMkZc4-7" vertex="1">
          <mxGeometry x="91.94999999999993" width="50" height="20" as="geometry" />
        </mxCell>
        <mxCell id="_krqjOud9GXak5Im0Ij4-194" value="&lt;b&gt;&lt;font style=&quot;font-size: 8px&quot;&gt;On/Off&lt;/font&gt;&lt;/b&gt;" style="text;html=1;align=center;verticalAlign=middle;resizable=0;points=[];autosize=1;" parent="OFRTmVLfSqw4pgtMkZc4-7" vertex="1">
          <mxGeometry width="40" height="20" as="geometry" />
        </mxCell>
        <mxCell id="_krqjOud9GXak5Im0Ij4-78" value="" style="group" parent="OFRTmVLfSqw4pgtMkZc4-7" vertex="1" connectable="0">
          <mxGeometry x="54" y="20" width="30" height="46" as="geometry" />
        </mxCell>
        <mxCell id="_krqjOud9GXak5Im0Ij4-79" value="" style="ellipse;whiteSpace=wrap;html=1;aspect=fixed;shadow=1;strokeColor=#666666;fillColor=#CCCCCC;" parent="_krqjOud9GXak5Im0Ij4-78" vertex="1">
          <mxGeometry width="30" height="30" as="geometry" />
        </mxCell>
        <mxCell id="_krqjOud9GXak5Im0Ij4-80" value="" style="ellipse;whiteSpace=wrap;html=1;aspect=fixed;fillColor=#666666;" parent="_krqjOud9GXak5Im0Ij4-78" vertex="1">
          <mxGeometry x="5" y="5" width="20" height="20" as="geometry" />
        </mxCell>
        <mxCell id="_krqjOud9GXak5Im0Ij4-81" value="" style="rounded=1;whiteSpace=wrap;html=1;shadow=0;fillColor=#CCCCCC;strokeColor=#666666;" parent="_krqjOud9GXak5Im0Ij4-78" vertex="1">
          <mxGeometry x="9" y="13.120000000000005" width="12" height="26.88" as="geometry" />
        </mxCell>
        <mxCell id="_krqjOud9GXak5Im0Ij4-82" value="" style="ellipse;whiteSpace=wrap;html=1;aspect=fixed;shadow=0;fillColor=#CCCCCC;sketch=0;strokeColor=#666666;" parent="_krqjOud9GXak5Im0Ij4-78" vertex="1">
          <mxGeometry x="9" y="34" width="12" height="12" as="geometry" />
        </mxCell>
        <mxCell id="_krqjOud9GXak5Im0Ij4-83" value="" style="ellipse;whiteSpace=wrap;html=1;aspect=fixed;fillColor=#CCCCCC;strokeColor=#CCCCCC;" parent="_krqjOud9GXak5Im0Ij4-78" vertex="1">
          <mxGeometry x="10" y="11" width="10" height="10" as="geometry" />
        </mxCell>
        <mxCell id="_krqjOud9GXak5Im0Ij4-96" value="" style="group" parent="OFRTmVLfSqw4pgtMkZc4-7" vertex="1" connectable="0">
          <mxGeometry x="104" y="20" width="30" height="46" as="geometry" />
        </mxCell>
        <mxCell id="_krqjOud9GXak5Im0Ij4-97" value="" style="ellipse;whiteSpace=wrap;html=1;aspect=fixed;shadow=1;strokeColor=#666666;fillColor=#CCCCCC;" parent="_krqjOud9GXak5Im0Ij4-96" vertex="1">
          <mxGeometry width="30" height="30" as="geometry" />
        </mxCell>
        <mxCell id="_krqjOud9GXak5Im0Ij4-98" value="" style="ellipse;whiteSpace=wrap;html=1;aspect=fixed;fillColor=#666666;" parent="_krqjOud9GXak5Im0Ij4-96" vertex="1">
          <mxGeometry x="5" y="5" width="20" height="20" as="geometry" />
        </mxCell>
        <mxCell id="_krqjOud9GXak5Im0Ij4-99" value="" style="rounded=1;whiteSpace=wrap;html=1;shadow=0;fillColor=#CCCCCC;strokeColor=#666666;" parent="_krqjOud9GXak5Im0Ij4-96" vertex="1">
          <mxGeometry x="9" y="13.120000000000005" width="12" height="26.88" as="geometry" />
        </mxCell>
        <mxCell id="_krqjOud9GXak5Im0Ij4-100" value="" style="ellipse;whiteSpace=wrap;html=1;aspect=fixed;shadow=0;fillColor=#CCCCCC;sketch=0;strokeColor=#666666;" parent="_krqjOud9GXak5Im0Ij4-96" vertex="1">
          <mxGeometry x="9" y="34" width="12" height="12" as="geometry" />
        </mxCell>
        <mxCell id="_krqjOud9GXak5Im0Ij4-101" value="" style="ellipse;whiteSpace=wrap;html=1;aspect=fixed;fillColor=#CCCCCC;strokeColor=#CCCCCC;" parent="_krqjOud9GXak5Im0Ij4-96" vertex="1">
          <mxGeometry x="10" y="11" width="10" height="10" as="geometry" />
        </mxCell>
        <mxCell id="_krqjOud9GXak5Im0Ij4-168" value="" style="ellipse;whiteSpace=wrap;html=1;aspect=fixed;fillColor=#CCCCCC;rotation=90;" parent="OFRTmVLfSqw4pgtMkZc4-7" vertex="1">
          <mxGeometry x="109" y="106" width="20" height="20" as="geometry" />
        </mxCell>
        <mxCell id="_krqjOud9GXak5Im0Ij4-268" value="&lt;b&gt;&lt;font style=&quot;font-size: 8px&quot;&gt;Reset&lt;/font&gt;&lt;/b&gt;" style="text;html=1;align=center;verticalAlign=middle;resizable=0;points=[];autosize=1;" parent="OFRTmVLfSqw4pgtMkZc4-7" vertex="1">
          <mxGeometry x="99" y="80" width="40" height="20" as="geometry" />
        </mxCell>
        <mxCell id="OFRTmVLfSqw4pgtMkZc4-9" value="" style="group" parent="9WZbX-PhAJqR_XlkO-rp-3" vertex="1" connectable="0">
          <mxGeometry x="5.8700000000000045" y="20" width="30" height="46" as="geometry" />
        </mxCell>
        <mxCell id="_krqjOud9GXak5Im0Ij4-7" value="" style="ellipse;whiteSpace=wrap;html=1;aspect=fixed;shadow=1;strokeColor=#666666;fillColor=#CCCCCC;" parent="OFRTmVLfSqw4pgtMkZc4-9" vertex="1">
          <mxGeometry width="30" height="30" as="geometry" />
        </mxCell>
        <mxCell id="_krqjOud9GXak5Im0Ij4-11" value="" style="ellipse;whiteSpace=wrap;html=1;aspect=fixed;fillColor=#666666;" parent="OFRTmVLfSqw4pgtMkZc4-9" vertex="1">
          <mxGeometry x="5" y="5" width="20" height="20" as="geometry" />
        </mxCell>
        <mxCell id="_krqjOud9GXak5Im0Ij4-19" value="" style="rounded=1;whiteSpace=wrap;html=1;shadow=0;fillColor=#CCCCCC;strokeColor=#666666;" parent="OFRTmVLfSqw4pgtMkZc4-9" vertex="1">
          <mxGeometry x="9" y="13.120000000000005" width="12" height="26.88" as="geometry" />
        </mxCell>
        <mxCell id="_krqjOud9GXak5Im0Ij4-16" value="" style="ellipse;whiteSpace=wrap;html=1;aspect=fixed;shadow=0;fillColor=#CCCCCC;sketch=0;strokeColor=#666666;" parent="OFRTmVLfSqw4pgtMkZc4-9" vertex="1">
          <mxGeometry x="9" y="34" width="12" height="12" as="geometry" />
        </mxCell>
        <mxCell id="_krqjOud9GXak5Im0Ij4-22" value="" style="ellipse;whiteSpace=wrap;html=1;aspect=fixed;fillColor=#CCCCCC;strokeColor=#CCCCCC;" parent="OFRTmVLfSqw4pgtMkZc4-9" vertex="1">
          <mxGeometry x="10" y="11" width="10" height="10" as="geometry" />
        </mxCell>
        <mxCell id="OFRTmVLfSqw4pgtMkZc4-1" value="" style="group" parent="1" vertex="1" connectable="0">
          <mxGeometry x="570" y="205" width="100" height="20" as="geometry" />
        </mxCell>
        <mxCell id="_krqjOud9GXak5Im0Ij4-308" value="" style="group;rotation=0;" parent="OFRTmVLfSqw4pgtMkZc4-1" vertex="1" connectable="0">
          <mxGeometry x="60" width="40" height="20" as="geometry" />
        </mxCell>
        <mxCell id="_krqjOud9GXak5Im0Ij4-309" value="" style="shape=image;html=1;verticalAlign=top;verticalLabelPosition=bottom;labelBackgroundColor=#ffffff;imageAspect=0;aspect=fixed;image=https://cdn1.iconfinder.com/data/icons/nuvola2/48x48/actions/ledorange.png;rounded=1;shadow=0;sketch=0;strokeColor=#1A1A1A;strokeWidth=1;fillColor=#FFFFFF;rotation=0;" parent="_krqjOud9GXak5Im0Ij4-308" vertex="1">
          <mxGeometry x="4" width="20" height="20" as="geometry" />
        </mxCell>
        <mxCell id="_krqjOud9GXak5Im0Ij4-310" value="" style="shape=flexArrow;endArrow=classic;html=1;width=11.428571428571429;endSize=10.842857142857142;" parent="_krqjOud9GXak5Im0Ij4-308" edge="1">
          <mxGeometry width="50" height="50" relative="1" as="geometry">
            <mxPoint y="10" as="sourcePoint" />
            <mxPoint x="40" y="10" as="targetPoint" />
          </mxGeometry>
        </mxCell>
        <mxCell id="_krqjOud9GXak5Im0Ij4-313" value="" style="group" parent="OFRTmVLfSqw4pgtMkZc4-1" vertex="1" connectable="0">
          <mxGeometry width="40" height="20" as="geometry" />
        </mxCell>
        <mxCell id="_krqjOud9GXak5Im0Ij4-303" value="" style="shape=flexArrow;endArrow=classic;html=1;width=11.428571428571429;endSize=10.842857142857142;" parent="_krqjOud9GXak5Im0Ij4-313" edge="1">
          <mxGeometry width="50" height="50" as="geometry">
            <mxPoint x="40" y="10" as="sourcePoint" />
            <mxPoint y="10" as="targetPoint" />
          </mxGeometry>
        </mxCell>
        <mxCell id="_krqjOud9GXak5Im0Ij4-301" value="" style="shape=image;html=1;verticalAlign=top;verticalLabelPosition=bottom;labelBackgroundColor=#ffffff;imageAspect=0;aspect=fixed;image=https://cdn1.iconfinder.com/data/icons/nuvola2/48x48/actions/ledorange.png;rounded=1;shadow=0;sketch=0;strokeColor=#1A1A1A;strokeWidth=1;fillColor=#FFFFFF;rotation=0;" parent="_krqjOud9GXak5Im0Ij4-313" vertex="1">
          <mxGeometry x="16" width="20" height="20" as="geometry" />
        </mxCell>
        <mxCell id="OFRTmVLfSqw4pgtMkZc4-2" value="" style="group" parent="1" vertex="1" connectable="0">
          <mxGeometry x="480" y="150" width="80" height="40" as="geometry" />
        </mxCell>
        <mxCell id="_krqjOud9GXak5Im0Ij4-314" value="" style="shape=image;html=1;verticalAlign=top;verticalLabelPosition=bottom;labelBackgroundColor=#ffffff;imageAspect=0;aspect=fixed;image=https://cdn1.iconfinder.com/data/icons/nuvola2/48x48/actions/ledlightblue.png;rounded=1;shadow=0;sketch=0;strokeColor=#1A1A1A;strokeWidth=1;fillColor=#FFFFFF;" parent="OFRTmVLfSqw4pgtMkZc4-2" vertex="1">
          <mxGeometry x="30" y="20" width="20" height="20" as="geometry" />
        </mxCell>
        <mxCell id="_krqjOud9GXak5Im0Ij4-315" value="&lt;b&gt;&lt;font style=&quot;font-size: 8px&quot;&gt;Motor controller&lt;/font&gt;&lt;/b&gt;" style="text;html=1;align=center;verticalAlign=middle;resizable=0;points=[];autosize=1;" parent="OFRTmVLfSqw4pgtMkZc4-2" vertex="1">
          <mxGeometry width="80" height="20" as="geometry" />
        </mxCell>
        <mxCell id="OFRTmVLfSqw4pgtMkZc4-3" value="" style="group" parent="1" vertex="1" connectable="0">
          <mxGeometry x="550" y="150" width="80" height="40" as="geometry" />
        </mxCell>
        <mxCell id="_krqjOud9GXak5Im0Ij4-316" value="" style="shape=image;html=1;verticalAlign=top;verticalLabelPosition=bottom;labelBackgroundColor=#ffffff;imageAspect=0;aspect=fixed;image=https://cdn1.iconfinder.com/data/icons/nuvola2/48x48/actions/ledorange.png;rounded=1;shadow=0;sketch=0;strokeColor=#1A1A1A;strokeWidth=1;fillColor=#FFFFFF;" parent="OFRTmVLfSqw4pgtMkZc4-3" vertex="1">
          <mxGeometry x="30" y="20" width="20" height="20" as="geometry" />
        </mxCell>
        <mxCell id="_krqjOud9GXak5Im0Ij4-319" value="&lt;b&gt;&lt;font style=&quot;font-size: 8px&quot;&gt;Battery warning&lt;/font&gt;&lt;/b&gt;" style="text;html=1;align=center;verticalAlign=middle;resizable=0;points=[];autosize=1;" parent="OFRTmVLfSqw4pgtMkZc4-3" vertex="1">
          <mxGeometry width="80" height="20" as="geometry" />
        </mxCell>
        <mxCell id="OFRTmVLfSqw4pgtMkZc4-4" value="" style="group" parent="1" vertex="1" connectable="0">
          <mxGeometry x="630" y="150" width="30" height="40" as="geometry" />
        </mxCell>
        <mxCell id="_krqjOud9GXak5Im0Ij4-321" value="" style="shape=image;html=1;verticalAlign=top;verticalLabelPosition=bottom;labelBackgroundColor=#ffffff;imageAspect=0;aspect=fixed;image=https://cdn1.iconfinder.com/data/icons/nuvola2/48x48/actions/ledorange.png;rounded=1;shadow=0;sketch=0;strokeColor=#1A1A1A;strokeWidth=1;fillColor=#CCCCCC;" parent="OFRTmVLfSqw4pgtMkZc4-4" vertex="1">
          <mxGeometry x="5" y="20" width="20" height="20" as="geometry" />
        </mxCell>
        <mxCell id="_krqjOud9GXak5Im0Ij4-322" value="&lt;b&gt;&lt;font style=&quot;font-size: 8px&quot;&gt;DRL&lt;/font&gt;&lt;/b&gt;" style="text;html=1;align=center;verticalAlign=middle;resizable=0;points=[];autosize=1;" parent="OFRTmVLfSqw4pgtMkZc4-4" vertex="1">
          <mxGeometry width="30" height="20" as="geometry" />
        </mxCell>
        <mxCell id="OFRTmVLfSqw4pgtMkZc4-5" value="" style="group" parent="1" vertex="1" connectable="0">
          <mxGeometry x="660" y="150" width="40" height="40" as="geometry" />
        </mxCell>
        <mxCell id="_krqjOud9GXak5Im0Ij4-421" value="" style="shape=image;html=1;verticalAlign=top;verticalLabelPosition=bottom;labelBackgroundColor=#ffffff;imageAspect=0;aspect=fixed;image=https://cdn1.iconfinder.com/data/icons/nuvola2/48x48/actions/ledorange.png;rounded=1;shadow=0;sketch=0;strokeColor=#1A1A1A;strokeWidth=1;fillColor=#CCCCCC;" parent="OFRTmVLfSqw4pgtMkZc4-5" vertex="1">
          <mxGeometry x="10" y="20" width="20" height="20" as="geometry" />
        </mxCell>
        <mxCell id="_krqjOud9GXak5Im0Ij4-422" value="&lt;b&gt;&lt;font style=&quot;font-size: 8px&quot;&gt;Brake&lt;/font&gt;&lt;/b&gt;" style="text;html=1;align=center;verticalAlign=middle;resizable=0;points=[];autosize=1;" parent="OFRTmVLfSqw4pgtMkZc4-5" vertex="1">
          <mxGeometry width="40" height="20" as="geometry" />
        </mxCell>
      </root>
    </mxGraphModel>
  </diagram>
</mxfile>
